<?xml version="1.0" encoding="UTF-8" standalone="no"?>
<!DOCTYPE svg PUBLIC "-//W3C//DTD SVG 1.1//EN"
 "http://www.w3.org/Graphics/SVG/1.1/DTD/svg11.dtd">
<!-- Generated by graphviz version 2.38.0 (20140413.2041)
 -->
<!-- Title: G Pages: 1 -->
<svg width="126pt" height="168pt"
 viewBox="0.00 0.00 126.00 168.00" xmlns="http://www.w3.org/2000/svg" xmlns:xlink="http://www.w3.org/1999/xlink">
<g id="graph0" class="graph" transform="scale(1 1) rotate(0) translate(4 164)">
<title>G</title>
<polygon fill="white" stroke="none" points="-4,4 -4,-164 122,-164 122,4 -4,4"/>
<g id="clust1" class="cluster"><title>cluster_Global</title>
<path fill="none" stroke="gray" d="M15,-8C15,-8 103,-8 103,-8 109,-8 115,-14 115,-20 115,-20 115,-140 115,-140 115,-146 109,-152 103,-152 103,-152 15,-152 15,-152 9,-152 3,-146 3,-140 3,-140 3,-20 3,-20 3,-14 9,-8 15,-8"/>
<text text-anchor="middle" x="59" y="-139.2" font-family="Times,serif" font-size="11.00" fill="gray">Global</text>
</g>
<g id="clust2" class="cluster"><title>cluster_\unikent</title>
<path fill="none" stroke="gray" d="M23,-16C23,-16 95,-16 95,-16 101,-16 107,-22 107,-28 107,-28 107,-112 107,-112 107,-118 101,-124 95,-124 95,-124 23,-124 23,-124 17,-124 11,-118 11,-112 11,-112 11,-28 11,-28 11,-22 17,-16 23,-16"/>
<text text-anchor="middle" x="59" y="-111.2" font-family="Times,serif" font-size="11.00" fill="gray">unikent</text>
</g>
<g id="clust3" class="cluster"><title>cluster_\unikent\LibrarySearch</title>
<path fill="none" stroke="gray" d="M31,-24C31,-24 87,-24 87,-24 93,-24 99,-30 99,-36 99,-36 99,-84 99,-84 99,-90 93,-96 87,-96 87,-96 31,-96 31,-96 25,-96 19,-90 19,-84 19,-84 19,-36 19,-36 19,-30 25,-24 31,-24"/>
<text text-anchor="middle" x="59" y="-83.2" font-family="Times,serif" font-size="11.00" fill="gray">LibrarySearch</text>
</g>
<!-- \\unikent\\LibrarySearch\\URL -->
<g id="node1" class="node"><title>\\unikent\\LibrarySearch\\URL</title>
<polygon fill="none" stroke="black" points="86,-68 32,-68 32,-32 86,-32 86,-68"/>
<text text-anchor="middle" x="59" y="-47.2" font-family="Courier,monospace" font-size="11.00">URL</text>
</g>
</g>
</svg>
